<svg xmlns="http://www.w3.org/2000/svg" version="1.1" xmlns:xlink="http://www.w3.org/1999/xlink" xmlns:svgjs="http://svgjs.dev/svgjs" width="1000" height="1000" viewBox="0 0 1000 1000"><rect width="1000" height="1000" fill="#ffffff"></rect><g transform="matrix(0.7,0,0,0.7,150.3363108464846,281.4271444865451)"><svg viewBox="0 0 395 247" data-background-color="#ffffff" preserveAspectRatio="xMidYMid meet" height="625" width="1000" xmlns="http://www.w3.org/2000/svg" xmlns:xlink="http://www.w3.org/1999/xlink"><defs></defs><g id="tight-bounds" transform="matrix(1,0,0,1,-0.18977540623060918,-0.09999999999999432)"><svg viewBox="0 0 395.3795454545454 247.2" height="247.2" width="395.3795454545454"><g><svg viewBox="0 0 395.3795454545454 247.2" height="247.2" width="395.3795454545454"><g><svg viewBox="0 0 395.3795454545454 247.2" height="247.2" width="395.3795454545454"><g><svg viewBox="0 0 395.3795454545454 247.2" height="247.2" width="395.3795454545454"><g><svg viewBox="0 0 395.3795454545454 247.2" height="247.2" width="395.3795454545454"><g transform="matrix(1,0,0,1,0,0)"><svg width="395.3795454545454" viewBox="3.25 -34.599998474121094 56.29999923706055 35.19999694824219" height="247.2" data-palette-color="#4b6b92"><path d="M15.45 0L15.45 0 3.25 0 11.1-34 21.8-34Q33-34 33-23.65L33-23.65Q33-16.35 30.3-10.45L30.3-10.45Q27.25-3.85 21.95-1.4L21.95-1.4Q19 0 15.45 0ZM23.7-12.53Q24.8-15.35 25.35-18.23 25.9-21.1 25.9-23.58 25.9-26.05 24.53-27.03 23.15-28 20.4-28L20.4-28 16.6-28 11.55-6 16.05-6Q18.6-6 20.6-7.85 22.6-9.7 23.7-12.53ZM49.3-28.7L49.3-28.7Q47.1-28.7 45.82-27.48 44.55-26.25 44.55-24.55 44.55-22.85 45.35-22.08 46.15-21.3 49.75-19.7 53.35-18.1 54.67-16.32 56-14.55 56-11.15L56-11.15Q56-5.5 52.52-2.45 49.05 0.6 43.15 0.6L43.15 0.6Q40.8 0.6 38.2 0.1 35.6-0.4 34.15-0.9L34.15-0.9 32.75-1.45 33.9-6.4Q39.55-5.4 42.77-5.4 46-5.4 47.5-6.53 49-7.65 49-10.35L49-10.35Q49-11.8 48.12-12.58 47.25-13.35 43.85-14.9 40.45-16.45 39-18.3 37.55-20.15 37.55-23.45L37.55-23.45Q37.55-28.3 40.7-31.45 43.85-34.6 49.1-34.6L49.1-34.6Q51.5-34.6 54.12-34.13 56.75-33.65 58.15-33.2L58.15-33.2 59.55-32.7 58.3-27.8Q52.8-28.7 49.3-28.7Z" opacity="1" transform="matrix(1,0,0,1,0,0)" fill="#4b6b92" class="undefined-text-0" data-fill-palette-color="primary" id="text-0"></path></svg></g></svg></g></svg></g></svg></g><g></g></svg></g></svg><rect width="395.3795454545454" height="247.2" fill="none" stroke="none" visibility="hidden"></rect></g></svg></g></svg>